<svg width="462" height="279" viewBox="0 0 462 279" fill="none" xmlns="http://www.w3.org/2000/svg">
<rect x="9.5" y="10.5" width="441" height="257" rx="8.5" stroke="#5E6170" stroke-width="3"/>
<rect x="91" width="8.96557" height="21.0889" fill="white"/>
<rect x="73" width="8.96557" height="21.0889" fill="white"/>
<rect x="55" width="8.96557" height="21.0889" fill="white"/>
<rect x="37" width="8.96557" height="21.0889" fill="white"/>
<rect x="19" width="8.96557" height="21.0889" fill="white"/>
<rect x="109" width="8.96557" height="21.0889" fill="white"/>
<rect x="127" width="8.96557" height="21.0889" fill="white"/>
<rect x="145" width="8.96557" height="21.0889" fill="white"/>
<rect x="162" width="8.96557" height="21.0889" fill="white"/>
<rect x="180" width="8.96557" height="21.0889" fill="white"/>
<rect x="198" width="8.96557" height="21.0889" fill="white"/>
<rect x="216" width="8.96557" height="21.0889" fill="white"/>
<rect x="234" width="8.96557" height="21.0889" fill="white"/>
<rect x="252" width="8.96557" height="21.0889" fill="white"/>
<rect x="270" width="8.96557" height="21.0889" fill="white"/>
<rect x="288" width="8.96557" height="21.0889" fill="white"/>
<rect x="306" width="8.96557" height="21.0889" fill="white"/>
<rect x="324" width="8.96557" height="21.0889" fill="white"/>
<rect x="342" width="8.96557" height="21.0889" fill="white"/>
<rect x="360" width="8.96557" height="21.0889" fill="white"/>
<rect x="378" width="8.96557" height="21.0889" fill="white"/>
<rect x="396" width="8.96557" height="21.0889" fill="white"/>
<rect x="413" width="8.96557" height="21.0889" fill="white"/>
<rect x="431" width="8.96557" height="21.0889" fill="white"/>
<rect x="91" y="257" width="8.96557" height="21.0889" fill="white"/>
<rect x="73" y="257" width="8.96557" height="21.0889" fill="white"/>
<rect x="55" y="257" width="8.96557" height="21.0889" fill="white"/>
<rect x="37" y="257" width="8.96557" height="21.0889" fill="white"/>
<rect x="19" y="257" width="8.96557" height="21.0889" fill="white"/>
<rect x="109" y="257" width="8.96557" height="21.0889" fill="white"/>
<rect x="127" y="257" width="8.96557" height="21.0889" fill="white"/>
<rect x="145" y="257" width="8.96557" height="21.0889" fill="white"/>
<rect x="162" y="257" width="8.96557" height="21.0889" fill="white"/>
<rect x="180" y="257" width="8.96557" height="21.0889" fill="white"/>
<rect x="198" y="257" width="8.96557" height="21.0889" fill="white"/>
<rect x="216" y="257" width="8.96557" height="21.0889" fill="white"/>
<rect x="234" y="257" width="8.96557" height="21.0889" fill="white"/>
<rect x="252" y="257" width="8.96557" height="21.0889" fill="white"/>
<rect x="270" y="257" width="8.96557" height="21.0889" fill="white"/>
<rect x="288" y="257" width="8.96557" height="21.0889" fill="white"/>
<rect x="306" y="257" width="8.96557" height="21.0889" fill="white"/>
<rect x="324" y="257" width="8.96557" height="21.0889" fill="white"/>
<rect x="342" y="257" width="8.96557" height="21.0889" fill="white"/>
<rect x="360" y="257" width="8.96557" height="21.0889" fill="white"/>
<rect x="378" y="257" width="8.96557" height="21.0889" fill="white"/>
<rect x="396" y="257" width="8.96557" height="21.0889" fill="white"/>
<rect x="413" y="257" width="8.96557" height="21.0889" fill="white"/>
<rect x="431" y="257" width="8.96557" height="21.0889" fill="white"/>
<rect y="259" width="7.33528" height="25.776" transform="rotate(-90 0 259)" fill="white"/>
<rect y="244" width="7.33528" height="25.776" transform="rotate(-90 0 244)" fill="white"/>
<rect y="230" width="7.33528" height="25.776" transform="rotate(-90 0 230)" fill="white"/>
<rect y="215" width="7.33528" height="25.776" transform="rotate(-90 0 215)" fill="white"/>
<rect y="200" width="7.33528" height="25.776" transform="rotate(-90 0 200)" fill="white"/>
<rect y="186" width="7.33528" height="25.776" transform="rotate(-90 0 186)" fill="white"/>
<rect y="171" width="7.33528" height="25.776" transform="rotate(-90 0 171)" fill="white"/>
<rect y="156" width="7.33528" height="25.776" transform="rotate(-90 0 156)" fill="white"/>
<rect y="142" width="7.33528" height="25.776" transform="rotate(-90 0 142)" fill="white"/>
<rect y="127" width="7.33528" height="25.776" transform="rotate(-90 0 127)" fill="white"/>
<rect y="112" width="7.33528" height="25.776" transform="rotate(-90 0 112)" fill="white"/>
<rect y="98" width="7.33528" height="25.776" transform="rotate(-90 0 98)" fill="white"/>
<rect y="83" width="7.33528" height="25.776" transform="rotate(-90 0 83)" fill="white"/>
<rect y="68" width="7.33528" height="25.776" transform="rotate(-90 0 68)" fill="white"/>
<rect y="54" width="7.33528" height="25.776" transform="rotate(-90 0 54)" fill="white"/>
<rect y="39" width="7.33528" height="25.776" transform="rotate(-90 0 39)" fill="white"/>
<rect y="24" width="7.33528" height="25.776" transform="rotate(-90 0 24)" fill="white"/>
<rect x="436" y="259" width="7.33528" height="25.776" transform="rotate(-90 436 259)" fill="white"/>
<rect x="436" y="244" width="7.33528" height="25.776" transform="rotate(-90 436 244)" fill="white"/>
<rect x="436" y="230" width="7.33528" height="25.776" transform="rotate(-90 436 230)" fill="white"/>
<rect x="436" y="215" width="7.33528" height="25.776" transform="rotate(-90 436 215)" fill="white"/>
<rect x="436" y="200" width="7.33528" height="25.776" transform="rotate(-90 436 200)" fill="white"/>
<rect x="436" y="186" width="7.33528" height="25.776" transform="rotate(-90 436 186)" fill="white"/>
<rect x="436" y="171" width="7.33528" height="25.776" transform="rotate(-90 436 171)" fill="white"/>
<rect x="436" y="156" width="7.33528" height="25.776" transform="rotate(-90 436 156)" fill="white"/>
<rect x="436" y="142" width="7.33528" height="25.776" transform="rotate(-90 436 142)" fill="white"/>
<rect x="436" y="127" width="7.33528" height="25.776" transform="rotate(-90 436 127)" fill="white"/>
<rect x="436" y="112" width="7.33528" height="25.776" transform="rotate(-90 436 112)" fill="white"/>
<rect x="436" y="98" width="7.33528" height="25.776" transform="rotate(-90 436 98)" fill="white"/>
<rect x="436" y="83" width="7.33528" height="25.776" transform="rotate(-90 436 83)" fill="white"/>
<rect x="436" y="68" width="7.33528" height="25.776" transform="rotate(-90 436 68)" fill="white"/>
<rect x="436" y="54" width="7.33528" height="25.776" transform="rotate(-90 436 54)" fill="white"/>
<rect x="436" y="39" width="7.33528" height="25.776" transform="rotate(-90 436 39)" fill="white"/>
<rect x="436" y="24" width="7.33528" height="25.776" transform="rotate(-90 436 24)" fill="white"/>
<path d="M210 135.375H258.75" stroke="#5E6170" stroke-width="5" stroke-linecap="round"/>
<path d="M234.375 159.75V111" stroke="#5E6170" stroke-width="5" stroke-linecap="round"/>
</svg>
